<?xml version="1.0" encoding="UTF-8"?>
<svg xmlns="http://www.w3.org/2000/svg"
     width="3.472in" height="3.847in"
     viewBox="0 0 250.0 277.0">
  <rect width="250.0" height="277.0" fill="white"/>

<rect x="10.0" y="18.0" width="100.0" height="24.0" rx="2" fill="#F2F3F4" stroke="#2C3E50" stroke-width="0.6"/>
<rect x="10.0" y="18.0" width="100.0" height="13.0" rx="2" fill="#E0E1E2" stroke="#2C3E50" stroke-width="0"/>
<text x="60.0" y="24.5" text-anchor="middle" dominant-baseline="middle" font-size="7.0" font-weight="bold" fill="#111111" font-family="'Arial', 'Helvetica', sans-serif">Technical Features</text>
<text x="60.0" y="36.5" text-anchor="middle" dominant-baseline="middle" font-size="6.4" font-weight="normal" fill="#111111" font-family="'Arial', 'Helvetica', sans-serif">x_T ∈ ℝ¹⁵</text>
<rect x="140.0" y="18.0" width="100.0" height="24.0" rx="2" fill="#F2F3F4" stroke="#2C3E50" stroke-width="0.6"/>
<rect x="140.0" y="18.0" width="100.0" height="13.0" rx="2" fill="#E0E1E2" stroke="#2C3E50" stroke-width="0"/>
<text x="190.0" y="24.5" text-anchor="middle" dominant-baseline="middle" font-size="7.0" font-weight="bold" fill="#111111" font-family="'Arial', 'Helvetica', sans-serif">On-chain Features</text>
<text x="190.0" y="36.5" text-anchor="middle" dominant-baseline="middle" font-size="6.4" font-weight="normal" fill="#111111" font-family="'Arial', 'Helvetica', sans-serif">x_O ∈ ℝ¹⁸</text>
<line x1="60.0" y1="42.0" x2="60.0" y2="46.5" stroke="#2C3E50" stroke-width="0.8"/>
<polygon points="58.2,46.5 60.0,51.0 61.8,46.5" fill="#2C3E50"/>
<line x1="190.0" y1="42.0" x2="190.0" y2="46.5" stroke="#2C3E50" stroke-width="0.8"/>
<polygon points="188.2,46.5 190.0,51.0 191.8,46.5" fill="#2C3E50"/>
<rect x="10.0" y="51.0" width="100.0" height="35.0" rx="2" fill="#D6EAF8" stroke="#2C3E50" stroke-width="0.6"/>
<rect x="10.0" y="51.0" width="100.0" height="13.0" rx="2" fill="#C5D9E8" stroke="#2C3E50" stroke-width="0"/>
<text x="60.0" y="57.5" text-anchor="middle" dominant-baseline="middle" font-size="7.0" font-weight="bold" fill="#111111" font-family="'Arial', 'Helvetica', sans-serif">MLP Encoder  T</text>
<text x="60.0" y="69.5" text-anchor="middle" dominant-baseline="middle" font-size="6.4" font-weight="normal" fill="#111111" font-family="'Arial', 'Helvetica', sans-serif">4 ResNet layers, dₕ=128</text>
<text x="60.0" y="80.5" text-anchor="middle" dominant-baseline="middle" font-size="6.4" font-weight="normal" fill="#111111" font-family="'Arial', 'Helvetica', sans-serif">GELU · LayerNorm · Dropout</text>
<rect x="140.0" y="51.0" width="100.0" height="35.0" rx="2" fill="#D5F5E3" stroke="#2C3E50" stroke-width="0.6"/>
<rect x="140.0" y="51.0" width="100.0" height="13.0" rx="2" fill="#C9E8C5" stroke="#2C3E50" stroke-width="0"/>
<text x="190.0" y="57.5" text-anchor="middle" dominant-baseline="middle" font-size="7.0" font-weight="bold" fill="#111111" font-family="'Arial', 'Helvetica', sans-serif">MLP Encoder  O</text>
<text x="190.0" y="69.5" text-anchor="middle" dominant-baseline="middle" font-size="6.4" font-weight="normal" fill="#111111" font-family="'Arial', 'Helvetica', sans-serif">4 ResNet layers, dₕ=128</text>
<text x="190.0" y="80.5" text-anchor="middle" dominant-baseline="middle" font-size="6.4" font-weight="normal" fill="#111111" font-family="'Arial', 'Helvetica', sans-serif">GELU · LayerNorm · Dropout</text>
<line x1="60.0" y1="86.0" x2="60.0" y2="101.5" stroke="#2C3E50" stroke-width="0.8"/>
<polygon points="58.2,101.5 60.0,106.0 61.8,101.5" fill="#2C3E50"/>
<line x1="190.0" y1="86.0" x2="190.0" y2="101.5" stroke="#2C3E50" stroke-width="0.8"/>
<polygon points="188.2,101.5 190.0,106.0 191.8,101.5" fill="#2C3E50"/>
<rect x="10.0" y="106.0" width="100.0" height="24.0" rx="2" fill="#EAF2FF" stroke="#2C3E50" stroke-width="0.6"/>
<rect x="10.0" y="106.0" width="100.0" height="13.0" rx="2" fill="#D8E9F8" stroke="#2C3E50" stroke-width="0"/>
<text x="60.0" y="112.5" text-anchor="middle" dominant-baseline="middle" font-size="7.0" font-weight="bold" fill="#111111" font-family="'Arial', 'Helvetica', sans-serif">+ K=4 Context Tokens</text>
<text x="60.0" y="124.5" text-anchor="middle" dominant-baseline="middle" font-size="6.4" font-weight="normal" fill="#111111" font-family="'Arial', 'Helvetica', sans-serif">S_T ∈ ℝ⁵ˣ¹²⁸</text>
<rect x="140.0" y="106.0" width="100.0" height="24.0" rx="2" fill="#EAFAF1" stroke="#2C3E50" stroke-width="0.6"/>
<rect x="140.0" y="106.0" width="100.0" height="13.0" rx="2" fill="#D8F0E5" stroke="#2C3E50" stroke-width="0"/>
<text x="190.0" y="112.5" text-anchor="middle" dominant-baseline="middle" font-size="7.0" font-weight="bold" fill="#111111" font-family="'Arial', 'Helvetica', sans-serif">+ K=4 Context Tokens</text>
<text x="190.0" y="124.5" text-anchor="middle" dominant-baseline="middle" font-size="6.4" font-weight="normal" fill="#111111" font-family="'Arial', 'Helvetica', sans-serif">S_O ∈ ℝ⁵ˣ¹²⁸</text>
<polyline points="60.0,130.0 60.0,169.5 44.5,169.5" fill="none" stroke="#2C3E50" stroke-width="0.8"/>
<polygon points="44.5,167.7 40.0,169.5 44.5,171.3" fill="#2C3E50"/>
<polyline points="190.0,130.0 190.0,169.5 205.5,169.5" fill="none" stroke="#2C3E50" stroke-width="0.8"/>
<polygon points="205.5,167.7 210.0,169.5 205.5,171.3" fill="#2C3E50"/>
<text x="46.0" y="141.0" text-anchor="end" dominant-baseline="middle" font-size="6.0" font-weight="normal" fill="#7F8C8D" font-family="'Arial', 'Helvetica', sans-serif">S_T</text>
<text x="204.0" y="141.0" text-anchor="start" dominant-baseline="middle" font-size="6.0" font-weight="normal" fill="#7F8C8D" font-family="'Arial', 'Helvetica', sans-serif">S_O</text>
<rect x="40.0" y="152.0" width="170.0" height="35.0" rx="2" fill="#FDEBD0" stroke="#2C3E50" stroke-width="0.6"/>
<rect x="40.0" y="152.0" width="170.0" height="13.0" rx="2" fill="#F0C9A0" stroke="#2C3E50" stroke-width="0"/>
<text x="125.0" y="158.5" text-anchor="middle" dominant-baseline="middle" font-size="7.0" font-weight="bold" fill="#111111" font-family="'Arial', 'Helvetica', sans-serif">Bidirectional Cross-Attention</text>
<text x="125.0" y="170.5" text-anchor="middle" dominant-baseline="middle" font-size="6.4" font-weight="normal" fill="#111111" font-family="'Arial', 'Helvetica', sans-serif">Q=S_T, K=V=S_O  ↔  Q=S_O, K=V=S_T</text>
<text x="125.0" y="181.5" text-anchor="middle" dominant-baseline="middle" font-size="6.4" font-weight="normal" fill="#111111" font-family="'Arial', 'Helvetica', sans-serif">H=4 heads · N_ca=1 layer</text>
<line x1="125.0" y1="187.0" x2="125.0" y2="191.5" stroke="#2C3E50" stroke-width="0.8"/>
<polygon points="123.2,191.5 125.0,196.0 126.8,191.5" fill="#2C3E50"/>
<rect x="40.0" y="196.0" width="170.0" height="24.0" rx="2" fill="#D5F5E3" stroke="#2C3E50" stroke-width="0.6"/>
<rect x="40.0" y="196.0" width="170.0" height="13.0" rx="2" fill="#C9E8C5" stroke="#2C3E50" stroke-width="0"/>
<text x="125.0" y="202.5" text-anchor="middle" dominant-baseline="middle" font-size="7.0" font-weight="bold" fill="#111111" font-family="'Arial', 'Helvetica', sans-serif">Gated Fusion</text>
<text x="125.0" y="214.5" text-anchor="middle" dominant-baseline="middle" font-size="6.4" font-weight="normal" fill="#111111" font-family="'Arial', 'Helvetica', sans-serif">g = σ(W_g[ž_T ; ž_O]),  f = g ⊙ W_f[ž_T ; ž_O]</text>
<line x1="125.0" y1="220.0" x2="125.0" y2="224.5" stroke="#2C3E50" stroke-width="0.8"/>
<polygon points="123.2,224.5 125.0,229.0 126.8,224.5" fill="#2C3E50"/>
<rect x="40.0" y="229.0" width="170.0" height="24.0" rx="2" fill="#FADBD8" stroke="#2C3E50" stroke-width="0.6"/>
<rect x="40.0" y="229.0" width="170.0" height="13.0" rx="2" fill="#E8C5C5" stroke="#2C3E50" stroke-width="0"/>
<text x="125.0" y="235.5" text-anchor="middle" dominant-baseline="middle" font-size="7.0" font-weight="bold" fill="#111111" font-family="'Arial', 'Helvetica', sans-serif">FC + Sigmoid</text>
<text x="125.0" y="247.5" text-anchor="middle" dominant-baseline="middle" font-size="6.4" font-weight="normal" fill="#111111" font-family="'Arial', 'Helvetica', sans-serif">ŷ = P(y=1 | x)  ∈ [0, 1]</text>
<line x1="10.0" y1="260.0" x2="240.0" y2="260.0" stroke="#BBBBBB" stroke-width="0.5"/>
<rect x="13.8" y="267.5" width="7.0" height="7.0" rx="1" fill="#F2F3F4" stroke="#888888" stroke-width="0.4"/>
<text x="23.3" y="271.0" text-anchor="start" dominant-baseline="middle" font-size="5.8" font-weight="normal" fill="#333333" font-family="'Arial', 'Helvetica', sans-serif">Input</text>
<rect x="52.2" y="267.5" width="7.0" height="7.0" rx="1" fill="#D6EAF8" stroke="#888888" stroke-width="0.4"/>
<text x="61.7" y="271.0" text-anchor="start" dominant-baseline="middle" font-size="5.8" font-weight="normal" fill="#333333" font-family="'Arial', 'Helvetica', sans-serif">Tech encoder</text>
<rect x="90.5" y="267.5" width="7.0" height="7.0" rx="1" fill="#D5F5E3" stroke="#888888" stroke-width="0.4"/>
<text x="100.0" y="271.0" text-anchor="start" dominant-baseline="middle" font-size="5.8" font-weight="normal" fill="#333333" font-family="'Arial', 'Helvetica', sans-serif">On-chain encoder</text>
<rect x="128.8" y="267.5" width="7.0" height="7.0" rx="1" fill="#FDEBD0" stroke="#888888" stroke-width="0.4"/>
<text x="138.3" y="271.0" text-anchor="start" dominant-baseline="middle" font-size="5.8" font-weight="normal" fill="#333333" font-family="'Arial', 'Helvetica', sans-serif">Cross-attention</text>
<rect x="167.2" y="267.5" width="7.0" height="7.0" rx="1" fill="#D5F5E3" stroke="#888888" stroke-width="0.4"/>
<text x="176.7" y="271.0" text-anchor="start" dominant-baseline="middle" font-size="5.8" font-weight="normal" fill="#333333" font-family="'Arial', 'Helvetica', sans-serif">Gated fusion</text>
<rect x="205.5" y="267.5" width="7.0" height="7.0" rx="1" fill="#FADBD8" stroke="#888888" stroke-width="0.4"/>
<text x="215.0" y="271.0" text-anchor="start" dominant-baseline="middle" font-size="5.8" font-weight="normal" fill="#333333" font-family="'Arial', 'Helvetica', sans-serif">Classifier</text>
</svg>